<svg xmlns="http://www.w3.org/2000/svg" width="24.526" height="23.905" viewBox="0 0 24.526 23.905">
  <path id="Icon_awesome-arrow-right" data-name="Icon awesome-arrow-right" d="M14.1,4.248,12.883,3.033a1.308,1.308,0,0,0-1.856,0L.386,13.669a1.308,1.308,0,0,0,0,1.856L11.027,26.166a1.308,1.308,0,0,0,1.856,0L14.1,24.951a1.315,1.315,0,0,0-.022-1.878l-6.6-6.284H23.212a1.311,1.311,0,0,0,1.314-1.314V13.724a1.311,1.311,0,0,0-1.314-1.314H7.48l6.6-6.284A1.306,1.306,0,0,0,14.1,4.248Z" transform="translate(0 -2.647)" fill="#fff"/>
</svg>
