<svg width="110" height="100" viewBox="0 0 110 100" fill="none" xmlns="http://www.w3.org/2000/svg">
<path d="M0 10C0 4.47716 4.47715 0 10 0H100C105.523 0 110 4.47715 110 10V90C110 95.5228 105.523 100 100 100H10C4.47715 100 0 95.5228 0 90V10Z" fill="#CFCFCF"/>
<path d="M68.417 48.0832H56.917V36.5832C56.917 35.5246 56.0589 34.6665 55.0003 34.6665C53.9418 34.6665 53.0837 35.5246 53.0837 36.5832V48.0832H41.5837C40.5251 48.0832 39.667 48.9413 39.667 49.9998C39.667 51.0584 40.5251 51.9165 41.5837 51.9165H53.0837V63.4165C53.0837 64.475 53.9418 65.3332 55.0003 65.3332C56.0589 65.3332 56.917 64.475 56.917 63.4165V51.9165H68.417C69.4755 51.9165 70.3337 51.0584 70.3337 49.9998C70.3337 48.9413 69.4755 48.0832 68.417 48.0832Z" fill="white"/>
</svg>
