<svg width="42" height="42" viewBox="0 0 42 42" fill="none" xmlns="http://www.w3.org/2000/svg">
<path opacity="0.3" d="M0 5C0 2.23858 2.23858 0 5 0H37C39.7614 0 42 2.23858 42 5V37C42 39.7614 39.7614 42 37 42H5C2.23858 42 0 39.7614 0 37V5Z" fill="#CBCBCB"/>
<path d="M25.8702 8.80322C24.5802 8.89245 23.0725 9.71816 22.1938 10.7934C21.3923 11.7688 20.733 13.2176 20.99 14.6255C22.3995 14.6694 23.8559 13.824 24.6997 12.7306C25.4891 11.7129 26.0864 10.2732 25.8702 8.80322Z" fill="black"/>
<path d="M30.9677 16.9212C29.7291 15.3681 27.9885 14.4668 26.3446 14.4668C24.1745 14.4668 23.2565 15.5057 21.7488 15.5057C20.1942 15.5057 19.0131 14.4698 17.1363 14.4698C15.2928 14.4698 13.3299 15.5965 12.0853 17.5231C10.3355 20.2362 10.635 25.3372 13.4705 29.6819C14.4853 31.2366 15.8403 32.9848 17.6127 32.9999C19.19 33.015 19.6346 31.9882 21.7715 31.9776C23.9083 31.9655 24.3136 33.0135 25.8879 32.9969C27.6618 32.9833 29.091 31.0461 30.1057 29.4914C30.8331 28.3768 31.1038 27.8158 31.6679 26.5576C27.5651 24.9954 26.9072 19.1609 30.9677 16.9212Z" fill="black"/>
</svg>
