<svg width="28" height="28" viewBox="0 0 28 28" fill="none" xmlns="http://www.w3.org/2000/svg">
<path d="M26.0995 10.9556C26.0995 8.9955 24.5048 7.40088 22.5448 7.40088H14.0013L13.418 17.117L14.0013 25.2837H26.0995V10.9556Z" fill="#29376D"/>
<path d="M5.45703 7.40088C3.49698 7.40088 1.90234 8.9955 1.90234 10.9556V25.2837H14.0005V7.40088H5.45703Z" fill="#47568C"/>
<path d="M24.4588 10.9556C24.4588 9.90015 23.6002 9.0415 22.5448 9.0415H14.0013L13.418 17.7003L14.0013 25.2837H24.4588V10.9556Z" fill="#EAF1FF"/>
<path d="M5.45703 9.0415C4.40162 9.0415 3.54297 9.90015 3.54297 10.9556V25.2837H14.0005V9.0415H5.45703Z" fill="#F9F9F9"/>
<path d="M20.6534 24.582L14 26.291L13.4531 27.1797L14 28H24.5821C26.4668 28 28 26.4667 28 24.582H20.6534Z" fill="#47568C"/>
<path d="M14 24.582L13.7402 25.4365L14 26.291H20.6534V24.582H14Z" fill="#29376D"/>
<path d="M0 24.582C0 26.4667 1.53327 28 3.41797 28H14V26.291L7.34661 24.582H0Z" fill="#61729B"/>
<path d="M7.3457 24.582H13.9991V26.291H7.3457V24.582Z" fill="#47568C"/>
<path d="M13.9995 0L13.3086 7.85302L13.9995 19.1764C13.9995 19.1764 18.844 13.7794 20.0717 12.145C21.0647 10.8229 21.5897 9.24793 21.5897 7.59024C21.5897 3.40495 18.1847 1.66893e-06 13.9995 1.66893e-06V0Z" fill="#FDAE02"/>
<path d="M6.41016 7.59019C6.41016 9.24788 6.93509 10.8229 7.92816 12.1449C9.15585 13.7794 14.0003 19.1764 14.0003 19.1764V0C9.81511 0 6.41016 3.40495 6.41016 7.59019Z" fill="#FDCB02"/>
<path d="M20.4327 18.1206H13.9994L13.416 19.2502L13.9994 19.7612H20.4327V18.1206Z" fill="#F7D586"/>
<path d="M7.56641 18.1206H13.9997V19.7612H7.56641V18.1206Z" fill="#F9E89C"/>
<path d="M13.9994 12.4953H14.8217V7.36914H13.9994L13.416 9.9167L13.9994 12.4953Z" fill="#EAF1FF"/>
<path d="M14.9422 5.28125C14.9422 4.76051 14.5201 4.33838 13.9994 4.33838L13.416 5.24986L13.9994 6.22411C14.5201 6.22411 14.9422 5.80199 14.9422 5.28125Z" fill="#EAF1FF"/>
<path d="M13.1816 7.36914H13.9999V12.4953H13.1816V7.36914Z" fill="#F9F9F9"/>
<path d="M13.0566 5.28125C13.0566 5.80199 13.4788 6.22411 13.9995 6.22411V4.33838C13.4788 4.33838 13.0566 4.76051 13.0566 5.28125Z" fill="#F9F9F9"/>
</svg>
