<svg width="25" height="24" viewBox="0 0 25 24" fill="none" xmlns="http://www.w3.org/2000/svg">
<path d="M24.3349 13.4456C24.3349 14.8377 23.217 15.9703 21.8433 15.9703L16.9607 15.9698L17.7057 18.5766V19.826C17.7057 22.1277 15.8577 24 13.5857 24C13.0349 24 12.5864 23.5461 12.5864 22.9881V20.2189C12.1982 19.5895 9.96418 17.0582 7.59494 14.4843V15.7684H6.20508V2.21536L10.1815 0.704971C11.4124 0.237024 12.7031 0 14.0179 0H20.2023C21.576 0 22.6939 1.13255 22.6939 2.52419C22.6939 3.11276 22.4942 3.65487 22.1593 4.0848C22.8121 4.54054 23.241 5.30277 23.241 6.16498C23.241 6.75355 23.0404 7.29519 22.7055 7.72511C22.9538 7.89831 23.1702 8.11609 23.3425 8.36672C23.6232 8.77506 23.7877 9.27117 23.7877 9.80529C23.7877 10.3939 23.5871 10.936 23.2526 11.3654C23.9059 11.8212 24.3349 12.5834 24.3349 13.4456Z" fill="#FDD1A3"/>
<path d="M24.3338 13.0609C24.3338 14.5038 23.16 15.6776 21.7176 15.6776L16.5907 15.6772L17.3729 18.379V19.674C17.3729 22.0596 15.4324 24.0001 13.0468 24.0001C12.4684 24.0001 11.9975 23.5297 11.9975 22.9513V20.0811C11.5898 19.4288 9.24407 16.8053 6.75629 14.1375V15.4684H5.29688V7.79688H23.2918C23.5866 8.22009 23.7593 8.73428 23.7593 9.28787C23.7593 9.89792 23.5486 10.4598 23.1974 10.9049C23.8833 11.3773 24.3338 12.1673 24.3338 13.0609Z" fill="#FFBB85"/>
<rect x="0.333984" y="0.572266" width="7.3296" height="17.2035" fill="#7985EB"/>
<rect x="0.333984" y="8.19043" width="7.3296" height="9.10376" fill="#4B5BE6"/>
<rect x="3.27734" y="13.1436" width="1.44349" height="1.4435" fill="#E1E4FB"/>
</svg>
