<svg width="24" height="24" viewBox="0 0 24 24" fill="none" xmlns="http://www.w3.org/2000/svg">
<g clip-path="url(#clip0_3163_1763)">
<path d="M19.061 24H0V6H24V19.061L19.061 24Z" fill="#E4EDFB"/>
<path d="M0 6H24V9H0V6Z" fill="#D7E1F2"/>
<path d="M4.5 3H3V0.75C3 0.551088 3.07902 0.360322 3.21967 0.21967C3.36033 0.0790176 3.55109 0 3.75 0C3.94891 0 4.13967 0.0790176 4.28033 0.21967C4.42098 0.360322 4.5 0.551088 4.5 0.75V3Z" fill="#BFC9D1"/>
<path d="M21 3H19.5V0.75C19.5 0.551088 19.579 0.360322 19.7197 0.21967C19.8603 0.0790176 20.0511 0 20.25 0C20.4489 0 20.6397 0.0790176 20.7803 0.21967C20.921 0.360322 21 0.551088 21 0.75V3Z" fill="#BFC9D1"/>
<path d="M19.0605 19.0625V24.0015L23.9995 19.0625H19.0605Z" fill="#C8D5E8"/>
<path d="M24 7.5H0V3.75C0 3.35218 0.158035 2.97064 0.43934 2.68934C0.720644 2.40803 1.10218 2.25 1.5 2.25H22.5C22.8978 2.25 23.2794 2.40803 23.5607 2.68934C23.842 2.97064 24 3.35218 24 3.75V7.5Z" fill="#FF7761"/>
<path d="M15.7818 20.4726L11.9998 18.5556L8.21784 20.4726L8.93984 16.4076L5.83984 13.4996L10.1148 12.8996L11.9948 9.22656L13.8748 12.8996L18.1498 13.4996L15.0499 16.4076L15.7818 20.4726Z" fill="#FFDA6B"/>
<path d="M15.7817 20.4704L12.0047 18.5524L8.22266 20.4694L8.94466 16.4044L13.8847 12.8984L18.1597 13.4984L15.0597 16.4064L15.7817 20.4704Z" fill="#F5CD00"/>
</g>
<defs>
<clipPath id="clip0_3163_1763">
<rect width="24" height="24" fill="white"/>
</clipPath>
</defs>
</svg>
