<svg width="42" height="42" viewBox="0 0 42 42" fill="none" xmlns="http://www.w3.org/2000/svg">
<path opacity="0.3" d="M0 5C0 2.23858 2.23858 0 5 0H37C39.7614 0 42 2.23858 42 5V37C42 39.7614 39.7614 42 37 42H5C2.23858 42 0 39.7614 0 37V5Z" fill="#CBCBCB"/>
<path d="M28.7211 30.1267C26.6398 31.8845 23.9399 33.0001 21.0008 33.0001C16.6273 33.0001 12.7882 30.5907 10.707 27.0751L11.4862 23.4835L14.9398 22.8423C15.7414 25.4297 18.1601 27.3282 21.0008 27.3282C22.3788 27.3282 23.6586 26.8923 24.7133 26.1189L28.032 26.6251L28.7211 30.1267Z" fill="#59C36A"/>
<path d="M28.7203 30.1265L28.0312 26.6249L24.7125 26.1187C23.6578 26.8921 22.3781 27.328 21 27.328V32.9999C23.9391 32.9999 26.6391 31.8843 28.7203 30.1265Z" fill="#00A66C"/>
<path d="M14.6719 20.9998C14.6719 21.6466 14.7703 22.2654 14.9391 22.842L10.7062 27.0748C9.65156 25.3029 9 23.2216 9 20.9998C9 18.7779 9.65156 16.6967 10.7062 14.9248L14.1034 15.5095L14.9391 19.1576C14.7703 19.7341 14.6719 20.3529 14.6719 20.9998V20.9998Z" fill="#FFDA2D"/>
<path d="M33 21C33 24.6562 31.3078 27.9328 28.7203 30.1265L24.7125 26.1187C25.528 25.5281 26.2172 24.7406 26.6672 23.8125H21C20.6062 23.8125 20.2969 23.5031 20.2969 23.1094V18.8906C20.2969 18.4968 20.6062 18.1875 21 18.1875H32.1C32.4375 18.1875 32.7328 18.4265 32.789 18.764C32.9297 19.4953 33 20.2546 33 21Z" fill="#4086F4"/>
<path d="M26.6673 23.8125C26.2172 24.7406 25.5281 25.5281 24.7125 26.1187L28.7203 30.1265C31.3079 27.9328 33 24.6562 33 21C33 20.2546 32.9297 19.4953 32.789 18.764C32.7328 18.4265 32.4375 18.1875 32.0999 18.1875H21V23.8125H26.6673Z" fill="#4175DF"/>
<path d="M28.918 12.3515C28.932 12.5484 28.8476 12.7312 28.7211 12.8718L25.7117 15.8671C25.4727 16.1203 25.0789 16.1484 24.7977 15.9374C23.6867 15.1078 22.3788 14.6719 21.0008 14.6719C18.1601 14.6719 15.7414 16.5703 14.9398 19.1578L10.707 14.925C12.7882 11.4094 16.6273 9 21.0008 9C23.7992 9 26.5273 10.0312 28.6648 11.8312C28.8195 11.9578 28.9039 12.1546 28.918 12.3515V12.3515Z" fill="#FF641A"/>
<path d="M24.7969 15.9374C25.0781 16.1484 25.4719 16.1203 25.7109 15.8671L28.7203 12.8718C28.8469 12.7312 28.9313 12.5484 28.9172 12.3515C28.903 12.1546 28.8187 11.9578 28.6641 11.8312C26.5266 10.0312 23.7985 9 21 9V14.6719C22.3781 14.6719 23.6859 15.1078 24.7969 15.9374Z" fill="#F03800"/>
</svg>
