<svg width="25" height="25" viewBox="0 0 25 25" fill="none" xmlns="http://www.w3.org/2000/svg">
<rect x="18.4512" y="3.854" width="2.67364" height="4.6667" fill="#F05540"/>
<rect x="17.4316" y="1.47217" width="4.71532" height="2.52781" fill="#F3705A"/>
<path d="M2.375 13.4036V24.5H22.0972V13.4036C18.2232 9.53749 16.0598 7.37846 12.2361 3.5625C8.4124 7.42863 6.24898 9.58768 2.375 13.4036Z" fill="#FFD15C"/>
<path d="M22.1458 13.0904C18.2722 9.34729 16.1089 7.25699 12.2855 3.5625C10.3236 5.40972 8.81433 6.86806 7.30511 8.32641C5.79589 9.78475 4.28667 11.2431 2.375 13.0903V15.2778C6.24865 11.5348 8.41189 9.44445 12.2353 5.74997C16.1089 9.49303 18.2722 11.5833 22.0955 15.2778V15.5695V13.0903H22.1458V13.0904Z" fill="#F7B64C"/>
<path d="M10.3592 24.5001H4.62305V18.8612C4.62305 17.2571 5.93556 15.9932 7.49111 15.9932C9.09528 15.9932 10.3592 17.3057 10.3592 18.8612V24.5001Z" fill="#415A6B"/>
<rect x="12.3906" y="15.9932" width="7.48618" height="6.56254" fill="#344A5E"/>
<rect x="13.1543" y="16.771" width="2.57639" height="5.00699" fill="#8AD7F8"/>
<rect x="16.5078" y="16.771" width="2.57639" height="5.00699" fill="#8AD7F8"/>
<path d="M23.884 11.0973L13.434 0.937503C12.834 0.354166 11.784 0.354166 11.184 0.937503L0.783984 11.0973C0.183984 11.6806 0.183984 12.7015 0.783984 13.2848C1.38398 13.8681 2.43398 13.8681 3.03398 13.2848L12.334 4.24307L21.634 13.2848C22.234 13.8681 23.284 13.8681 23.884 13.2848C24.484 12.6529 24.484 11.6806 23.884 11.0973Z" fill="#F3705A"/>
</svg>
