<svg width="26" height="25" viewBox="0 0 26 25" fill="none" xmlns="http://www.w3.org/2000/svg">
    <defs>
        <linearGradient id="paint0_linear_3_82286" x1="25.1067" y1="-728.644" x2="0.890625"
            y2="-728.644" gradientUnits="userSpaceOnUse">
            <stop stop-color="#00F1FF" />
            <stop offset="0.231" stop-color="#00D8FF" />
            <stop offset="0.5138" stop-color="#00C0FF" />
            <stop offset="0.7773" stop-color="#00B2FF" />
            <stop offset="1" stop-color="#00ADFF" />
        </linearGradient>
    </defs>
    <path
        d="M25.1067 12.5001C25.1067 19.1873 19.6858 24.6082 12.9987 24.6082C6.31148 24.6082 0.890625 19.1873 0.890625 12.5001C0.890625 5.81294 6.31148 0.39209 12.9987 0.39209C19.6858 0.39209 25.1067 5.81294 25.1067 12.5001Z"
        fill="url(#paint0_linear_3_82286)" />
    <path
        d="M17.4781 15.9757C17.4775 15.9753 17.4772 15.9747 17.4766 15.9744L9.51724 8.01499C9.51632 8.01406 9.51558 8.01315 9.51465 8.01241L6.28774 4.78548C6.01079 4.50836 5.56165 4.50836 5.28453 4.78548C5.00741 5.06262 5.0074 5.51176 5.28453 5.7887L7.93908 8.44325C6.58538 9.53108 5.74494 10.7229 5.49478 11.1032C4.93664 11.9517 4.93664 13.0482 5.49478 13.8966C5.82493 14.3988 6.75609 15.6876 8.2659 16.8098C9.79918 17.9496 11.3962 18.5273 13.0124 18.5273C14.3221 18.5273 15.6224 18.1447 16.885 17.3892L19.7101 20.2145C19.8487 20.3529 20.0303 20.4223 20.2117 20.4223C20.3933 20.4223 20.5749 20.353 20.7133 20.2145C20.9904 19.9373 20.9904 19.4882 20.7133 19.2111L17.4781 15.9757ZM11.052 11.5563L11.8472 12.3513C11.803 12.7039 11.9161 13.0721 12.1866 13.3427C12.4572 13.6132 12.8256 13.7263 13.178 13.6823L13.943 14.4472C13.6524 14.5884 13.3315 14.6634 12.9989 14.6634C11.806 14.6634 10.8355 13.6928 10.8355 12.4999C10.8355 12.1686 10.9108 11.8473 11.052 11.5563ZM13.0122 17.1084C10.0863 17.1084 7.65528 14.5994 6.68016 13.117C6.4337 12.7421 6.4337 12.2577 6.68016 11.883C6.90667 11.5384 7.68725 10.4327 8.94893 9.4533L10.0146 10.519C9.62642 11.1021 9.41656 11.7871 9.41656 12.4999C9.41656 14.4753 11.0237 16.0823 12.9989 16.0823C13.7148 16.0823 14.3986 15.8737 14.981 15.4852L15.8438 16.3481C14.9052 16.8523 13.9558 17.1084 13.0122 17.1084Z"
        fill="white" />
    <path
        d="M11.5349 8.0983C12.0267 7.96123 12.5236 7.89157 13.0113 7.89157C15.9241 7.89157 18.3318 10.3808 19.3064 11.8669C19.3097 11.8725 19.3133 11.8778 19.3168 11.883C19.4374 12.0667 19.5014 12.28 19.5014 12.5001C19.5014 12.7201 19.4374 12.9335 19.3168 13.117C19.0258 13.5592 18.6356 14.0448 18.2181 14.484C17.9481 14.7679 17.9596 15.2171 18.2436 15.487C18.3808 15.6174 18.5567 15.6823 18.7322 15.6823C18.9199 15.6823 19.1071 15.6084 19.2466 15.4615C19.8539 14.8226 20.2647 14.2578 20.5022 13.8966C20.7758 13.4809 20.9203 12.998 20.9203 12.4999C20.9203 12.012 20.7815 11.5384 20.5186 11.1284C20.5153 11.1229 20.5118 11.1176 20.5083 11.1122C20.1809 10.6095 19.2571 9.31879 17.754 8.19475C16.2257 7.05203 14.6299 6.47266 13.0115 6.47266C12.3946 6.47266 11.7697 6.55966 11.1538 6.73149C10.7763 6.83681 10.5557 7.2281 10.6611 7.60556C10.7662 7.98302 11.1577 8.20361 11.5349 8.0983Z"
        fill="white" />
    <path
        d="M13.8015 9.00778C13.4194 8.92039 13.039 9.15911 12.9516 9.54099C12.8642 9.92288 13.103 10.3035 13.4848 10.3909C14.2952 10.5765 14.934 11.2212 15.1124 12.033C15.1851 12.3644 15.4787 12.5904 15.8046 12.5904C15.855 12.5904 15.9062 12.585 15.9576 12.5737C16.3402 12.4898 16.5824 12.1115 16.4984 11.7287C16.2029 10.3833 15.1443 9.31524 13.8015 9.00779L13.8015 9.00778Z"
        fill="white" />
</svg>
