<svg width="26" height="26" viewBox="0 0 26 26" fill="none" xmlns="http://www.w3.org/2000/svg">
<path d="M15.4079 13.9774C13.6931 13.9774 12.2977 12.5819 12.2977 10.8672C12.2977 9.15247 13.6931 7.75703 15.4079 7.75703H17.4812V3.61018C17.4812 1.89544 16.0857 0.5 14.371 0.5H3.22625C2.88513 0.5 2.56584 0.66781 2.37202 0.948759C2.17915 1.22971 2.13568 1.58754 2.25794 1.90569L9.77427 21.6036C9.9267 22.0059 10.3122 22.2713 10.7426 22.2713H14.371C16.0858 22.2713 17.4812 20.8758 17.4812 19.1611V13.9774L15.4079 13.9774Z" fill="#2196F3"/>
<path d="M20.1945 15.9723C19.8078 15.8116 19.5548 15.4332 19.5548 15.0143V11.9041H15.4079C14.8356 11.9041 14.3711 11.4398 14.3711 10.8674C14.3711 10.2951 14.8356 9.83076 15.4079 9.83076H19.5548V6.72056C19.5548 6.30163 19.8078 5.92329 20.1945 5.7625C20.5822 5.6019 21.0281 5.69113 21.3244 5.98765L25.4715 10.1345C25.8767 10.5398 25.8767 11.1951 25.4715 11.6004L21.3244 15.7474C21.0281 16.0437 20.5822 16.1329 20.1945 15.9724V15.9723Z" fill="#607D8B"/>
<path d="M9.85616 2.67928L3.62652 0.602722C2.22063 0.170478 0.892578 1.20828 0.892578 2.57354V21.2346C0.892578 22.1211 1.45657 22.9122 2.29637 23.2024L8.5249 25.279C8.75403 25.3494 8.96455 25.3817 9.18646 25.3817C10.33 25.3817 11.2598 24.4517 11.2598 23.3081V4.64706C11.2598 3.76074 10.6958 2.96972 9.85619 2.67928L9.85616 2.67928Z" fill="#64B5F6"/>
</svg>
