<svg width="24" height="24" viewBox="0 0 24 24" fill="none" xmlns="http://www.w3.org/2000/svg">
    <defs>
        <linearGradient id="paint0_linear_3_82207" x1="6" y1="6" x2="6" y2="6"
            gradientUnits="userSpaceOnUse">
            <stop stop-color="#FD3A84" />
            <stop offset="1" stop-color="#FFA68D" />
        </linearGradient>
        <linearGradient id="paint1_linear_3_82207" x1="8.38556" y1="9.25649" x2="8.38556"
            y2="9.25649" gradientUnits="userSpaceOnUse">
            <stop stop-color="#FFC2CC" />
            <stop offset="1" stop-color="#FFF2F4" />
        </linearGradient>
    </defs>
    <circle cx="12" cy="12" r="12" fill="url(#paint0_linear_3_82207)" />
    <path
        d="M15.5872 5.82715C14.0816 5.82715 12.9268 6.67355 12.1578 7.93313C11.3887 6.67332 10.2339 5.82715 8.7285 5.82715C7.56201 5.82715 6.49768 6.3195 5.73166 7.21352C5.0105 8.05526 4.61328 9.17935 4.61328 10.3788C4.61328 11.683 5.10245 12.8887 6.15265 14.1733C7.07344 15.2996 8.39534 16.4582 9.92603 17.7999C10.4919 18.2959 11.0771 18.8088 11.699 19.3685C11.8294 19.4858 11.9936 19.5445 12.1578 19.5445C12.322 19.5445 12.4862 19.4858 12.6167 19.3684C13.2386 18.8087 13.8237 18.2958 14.3896 17.7998C15.9203 16.4582 17.2422 15.2996 18.163 14.1733C19.2132 12.8888 19.7024 11.683 19.7024 10.3788C19.7024 7.92627 18.0221 5.82715 15.5872 5.82715Z"
        fill="url(#paint1_linear_3_82207)" />
</svg>
