<svg width="25" height="25" viewBox="0 0 25 25" fill="none" xmlns="http://www.w3.org/2000/svg">
<path d="M13.1053 5.88341C13.2665 6.0131 13.4962 6.013 13.6572 5.88323L15.6382 4.28716C16.1427 3.88077 16.5127 3.33158 16.7 2.71144C16.8622 2.17443 16.7516 1.59198 16.4037 1.15186C15.9221 0.54254 15.0913 0.332763 14.3781 0.640547C13.9899 0.801763 13.6752 1.01238 13.3798 1.27855C13.0856 1.01336 12.7709 0.802276 12.3814 0.640547C11.6683 0.332763 10.8374 0.54254 10.3559 1.1519C10.008 1.59203 9.89743 2.17443 10.0596 2.71149C10.2469 3.33163 10.617 3.88077 11.1214 4.28721L13.1053 5.88341Z" fill="#EB5569"/>
<path d="M16.4113 1.15164C15.9337 0.547363 15.1128 0.336374 14.4037 0.633009C14.6656 0.742445 14.9025 0.917375 15.0876 1.15164C15.4354 1.59177 15.546 2.17417 15.3838 2.71123C15.1965 3.33136 14.8265 3.88055 14.322 4.28695L12.7266 5.57238L13.1129 5.8832C13.274 6.01283 13.5037 6.01279 13.6647 5.88301L15.6458 4.28695C16.1502 3.88055 16.5203 3.33137 16.7076 2.71123C16.8698 2.17417 16.7592 1.59177 16.4113 1.15164V1.15164Z" fill="#E53950"/>
<path d="M23.6728 18.2351C24.1711 17.6648 24.4076 16.8694 24.3143 16.0782L24.003 13.4389C23.6668 10.5878 21.6708 8.17534 18.8683 7.23291L15.9989 8.19788C14.9549 8.54895 14.1918 9.55309 14.0491 10.7635L13.4223 16.0782C13.329 16.8694 13.5656 17.6647 14.0639 18.2351C14.5001 18.7344 15.0975 19.0158 15.7211 19.0158H22.0155C22.6392 19.0159 23.2365 18.7344 23.6728 18.2351Z" fill="#C86D36"/>
<path d="M24.3135 16.0782L24.0023 13.4389C23.666 10.5878 21.67 8.17538 18.8675 7.23291L18.2227 7.44981C20.7233 8.5119 22.4742 10.7853 22.7872 13.4389L23.0984 16.0782C23.1917 16.8694 22.9552 17.6647 22.4569 18.2351C22.0207 18.7344 21.4233 19.0159 20.7996 19.0159H22.0148C22.6385 19.0159 23.2358 18.7344 23.6721 18.2351C24.1703 17.6648 24.4069 16.8694 24.3135 16.0782Z" fill="#AC5E2E"/>
<path d="M16.0793 19.0161C14.9072 19.0161 13.957 19.9663 13.957 21.1384V24.4996H23.7814V21.1384C23.7814 19.9663 22.8312 19.0161 21.6591 19.0161C21.469 19.0161 16.0087 19.0161 16.0793 19.0161Z" fill="#F58A97"/>
<path d="M21.6588 19.0161C21.607 19.0161 21.1622 19.0161 20.5449 19.0161C21.717 19.0161 22.6672 19.9663 22.6672 21.1384V24.4996H23.7811V21.1384C23.7811 19.9663 22.831 19.0161 21.6588 19.0161Z" fill="#F07281"/>
<path d="M18.8688 20.9424C17.9144 20.9424 17.1406 20.1686 17.1406 19.2142V15.0552H20.597V19.2142C20.597 20.1686 19.8233 20.9424 18.8688 20.9424Z" fill="#FFB09E"/>
<path d="M17.1406 18.4747C17.5166 18.6499 17.9239 18.769 18.3521 18.821C18.3516 18.821 18.351 18.8211 18.3505 18.8212C19.1558 18.9197 19.9262 18.7805 20.597 18.4626V15.0552H17.1406V18.4747Z" fill="#FFA78F"/>
<path d="M20.9414 12.1196H22.9096C23.6664 12.1196 24.2798 12.733 24.2798 13.4898V13.4982C24.2798 14.2549 23.6664 14.8684 22.9096 14.8684H20.9414V12.1196Z" fill="#FFA78F"/>
<path d="M16.77 14.8683H14.8018C14.045 14.8683 13.4316 14.2549 13.4316 13.4982V13.4897C13.4316 12.733 14.045 12.1196 14.8018 12.1196H16.77V14.8683Z" fill="#FFB09E"/>
<path d="M18.8049 8.74365C16.5934 8.76352 14.8066 10.5621 14.8066 12.7784V14.2087C14.8066 16.425 16.5934 18.2236 18.8049 18.2435C21.0165 18.2236 22.8032 16.425 22.8032 14.2087V12.7784C22.8032 10.5621 21.0165 8.76352 18.8049 8.74365Z" fill="#FFCEBF"/>
<path d="M18.8627 16.4651C18.2265 16.4651 17.709 15.9476 17.709 15.3114C17.709 15.1634 17.8289 15.0435 17.9769 15.0435C18.1249 15.0435 18.2449 15.1634 18.2449 15.3114C18.2449 15.6521 18.5221 15.9293 18.8628 15.9293C19.2035 15.9293 19.4807 15.6521 19.4807 15.3114C19.4807 15.1634 19.6007 15.0435 19.7486 15.0435C19.8966 15.0435 20.0166 15.1634 20.0166 15.3114C20.0165 15.9475 19.4989 16.4651 18.8627 16.4651Z" fill="#FFA799"/>
<path d="M16.5649 14.877C16.3489 14.877 16.1887 14.877 15.9691 14.877C15.8211 14.877 15.7012 14.9969 15.7012 15.1449C15.7012 15.2928 15.8211 15.4128 15.9691 15.4128H16.5649C16.7129 15.4128 16.8329 15.2928 16.8329 15.1449C16.8329 14.9969 16.7129 14.877 16.5649 14.877Z" fill="#FE8F83"/>
<path d="M20.9047 14.5794C20.7567 14.5794 20.6367 14.4594 20.6367 14.3114V13.5433C20.6367 13.3954 20.7567 13.2754 20.9047 13.2754H21.2349C21.3829 13.2754 21.5028 13.3953 21.5028 13.5433C21.5028 13.6913 21.3829 13.8113 21.2349 13.8113H21.1725V14.3114C21.1725 14.4594 21.0526 14.5794 20.9047 14.5794Z" fill="#5A5A5A"/>
<path d="M16.8326 14.5794C16.6846 14.5794 16.5646 14.4594 16.5646 14.3114V13.8113H16.5023C16.3544 13.8113 16.2344 13.6913 16.2344 13.5433C16.2344 13.3954 16.3544 13.2754 16.5023 13.2754H16.8325C16.9805 13.2754 17.1005 13.3953 17.1005 13.5433V14.3114C17.1005 14.4594 16.9805 14.5794 16.8326 14.5794Z" fill="#5A5A5A"/>
<path d="M18.8697 8.74316H18.8422C18.6754 8.74316 18.5111 8.75348 18.3496 8.77316C20.3458 9.01614 21.8922 10.7166 21.8922 12.7784V14.2088C21.8922 16.2706 20.3458 17.971 18.3496 18.214C18.5111 18.2337 18.6754 18.244 18.8422 18.244H18.8697C21.0983 18.244 22.9049 16.4374 22.9049 14.2088V12.7784C22.9049 10.5498 21.0982 8.74316 18.8697 8.74316Z" fill="#FFB09E"/>
<path d="M21.768 14.877C21.552 14.877 21.3918 14.877 21.1722 14.877C21.0243 14.877 20.9043 14.9969 20.9043 15.1449C20.9043 15.2928 21.0243 15.4128 21.1722 15.4128H21.768C21.916 15.4128 22.036 15.2928 22.036 15.1449C22.036 14.9969 21.916 14.877 21.768 14.877Z" fill="#FE8F83"/>
<path d="M17.6099 12.4756H18.4199L20.1655 9.71008L18.0935 8.81299C16.7845 9.05864 15.6984 9.93581 15.1641 11.1165C15.6727 11.9323 16.5776 12.4756 17.6099 12.4756Z" fill="#FFB09E"/>
<path d="M23.8308 12.4757H18.4197C16.8287 12.4757 15.5391 11.186 15.5391 9.59509V9.40514C15.5391 7.93605 16.73 6.74512 18.1991 6.74512H20.1219C22.1703 6.74512 23.8308 8.40565 23.8308 10.454V12.4757Z" fill="#D77F4A"/>
<path d="M20.0345 6.74512H18.7852C20.882 6.74512 22.5818 8.36731 22.5818 10.3684V12.4757H23.8311V10.3684C23.8311 8.36731 22.1312 6.74512 20.0345 6.74512Z" fill="#C86D36"/>
<path d="M10.1103 19.0752H2.92281H2.71289H2.33197C1.22851 19.0752 0.333984 19.9697 0.333984 21.0732V24.4997H12.1083V21.0732C12.1083 19.9697 11.2138 19.0752 10.1103 19.0752Z" fill="#3C87D0"/>
<path d="M10.32 19.0752H9.06055C10.164 19.0752 11.0585 19.9697 11.0585 21.0732V24.4997H12.318V21.0732C12.318 19.9697 11.4235 19.0752 10.32 19.0752Z" fill="#0078C8"/>
<path d="M6.32698 21.124C5.36649 21.124 4.58789 20.3454 4.58789 19.3849V15.1997H8.06606V19.3849C8.06606 20.3454 7.28746 21.124 6.32698 21.124Z" fill="#FFB09E"/>
<path d="M4.58789 18.5398C5.10139 18.7716 5.66994 18.903 6.26866 18.9083C6.91306 18.9025 7.52266 18.751 8.06606 18.4852V15.4097H4.58789V18.5398Z" fill="#FFA78F"/>
<path d="M8.48242 11.8267H10.5225C11.3068 11.8267 11.9426 12.4625 11.9426 13.2468V13.2555C11.9426 14.0399 11.3068 14.6757 10.5225 14.6757H8.48242V11.8267Z" fill="#FFA78F"/>
<path d="M6.67434 7.38965H3.16319C1.92268 7.38965 0.959864 8.47185 1.10419 9.7039L1.55537 13.5553H6.67434V7.38965Z" fill="#AA6A51"/>
<path d="M4.15752 14.6757H2.11742C1.33308 14.6757 0.697266 14.0399 0.697266 13.2555V13.2468C0.697266 12.4625 1.33308 11.8267 2.11742 11.8267H4.15748V14.6757H4.15752Z" fill="#FFB09E"/>
<path d="M6.26731 8.32715C3.97502 8.34772 2.12305 10.212 2.12305 12.5091V13.9917C2.12305 16.2889 3.97502 18.1532 6.26731 18.1737C8.55959 18.1532 10.4116 16.2889 10.4116 13.9917V12.5091C10.4115 10.2121 8.55955 8.34772 6.26731 8.32715Z" fill="#FFCEBF"/>
<path d="M6.31949 16.4229C5.67485 16.4229 5.15039 15.8984 5.15039 15.2538C5.15039 15.1004 5.2747 14.9761 5.42809 14.9761C5.58147 14.9761 5.70578 15.1004 5.70578 15.2538C5.70578 15.5922 5.98109 15.8675 6.31949 15.8675C6.65787 15.8675 6.93318 15.5922 6.93318 15.2538C6.93318 15.1004 7.0575 14.9761 7.21088 14.9761C7.36427 14.9761 7.48859 15.1004 7.48859 15.2538C7.48859 15.8985 6.96411 16.4229 6.31949 16.4229Z" fill="#FFA799"/>
<path d="M4.27184 14.2194C4.11845 14.2194 3.99414 14.0951 3.99414 13.9417V13.1688C3.99414 13.0154 4.11845 12.8911 4.27184 12.8911C4.42522 12.8911 4.54953 13.0154 4.54953 13.1688V13.9417C4.54953 14.0951 4.42517 14.2194 4.27184 14.2194Z" fill="#5A5A5A"/>
<path d="M8.36949 14.2194C8.21611 14.2194 8.0918 14.0951 8.0918 13.9417V13.1688C8.0918 13.0154 8.21611 12.8911 8.36949 12.8911C8.52287 12.8911 8.6472 13.0154 8.6472 13.1688V13.9417C8.64723 14.0951 8.52287 14.2194 8.36949 14.2194Z" fill="#5A5A5A"/>
<path d="M3.99287 14.6982C3.76897 14.6982 3.6029 14.6982 3.37535 14.6982C3.22197 14.6982 3.09766 14.8226 3.09766 14.976C3.09766 15.1293 3.22197 15.2537 3.37535 15.2537H3.99287C4.14626 15.2537 4.27058 15.1293 4.27058 14.976C4.27062 14.8226 4.14626 14.6982 3.99287 14.6982Z" fill="#FE8F83"/>
<path d="M6.33369 8.32666H6.30523C6.11425 8.32666 5.92635 8.33972 5.74219 8.36453C7.78579 8.63957 9.36161 10.3902 9.36161 12.5092V13.9917C9.36161 16.1107 7.78579 17.8613 5.74219 18.1364C5.92635 18.1611 6.11425 18.1742 6.30523 18.1742H6.33369C8.64361 18.1742 10.5162 16.3017 10.5162 13.9917V12.5092C10.5162 10.1992 8.64361 8.32666 6.33369 8.32666Z" fill="#FFB09E"/>
<path d="M9.26437 14.6982C9.04047 14.6982 8.87439 14.6982 8.64684 14.6982C8.49347 14.6982 8.36914 14.8226 8.36914 14.976C8.36914 15.1293 8.49347 15.2537 8.64684 15.2537H9.26437C9.41776 15.2537 9.54205 15.1293 9.54205 14.976C9.54205 14.8226 9.41776 14.6982 9.26437 14.6982Z" fill="#FE8F83"/>
<path d="M4.53493 11.8267H5.53703V8.39844C4.13091 8.66019 2.97194 9.62473 2.43945 10.9144C2.96238 11.4754 3.70744 11.8267 4.53493 11.8267Z" fill="#FFB09E"/>
<path d="M11.431 11.8266H5.68892C4.1068 11.8266 2.82422 10.544 2.82422 8.96192V8.19073C2.82422 7.03452 3.76151 6.09717 4.91778 6.09717H8.60088C10.1639 6.09717 11.431 7.36427 11.431 8.92731V11.8266Z" fill="#AA6A51"/>
<path d="M8.6013 6.09717H7.3418C8.90485 6.09717 10.1719 7.36427 10.1719 8.92735V11.8266H11.4314V8.92735C11.4315 7.36427 10.1644 6.09717 8.6013 6.09717Z" fill="#935B44"/>
</svg>
