<svg width="25" height="25" viewBox="0 0 25 25" fill="none" xmlns="http://www.w3.org/2000/svg">
    <defs>
        <linearGradient id="paint0_linear_3_82187" x1="26.389" y1="-1.30013" x2="14.482"
            y2="-1.30013" gradientUnits="userSpaceOnUse">
            <stop stop-color="#A7F3CE" />
            <stop offset="1" stop-color="#61DB99" />
        </linearGradient>
        <linearGradient id="paint1_linear_3_82187" x1="13.3223" y1="11.7664" x2="18.3797"
            y2="11.7664" gradientUnits="userSpaceOnUse">
            <stop stop-color="#61DB99" stop-opacity="0" />
            <stop offset="1" stop-color="#009E74" />
        </linearGradient>
        <linearGradient id="paint2_linear_3_82187" x1="19.1668" y1="3.62755" x2="6.59537"
            y2="3.62755" gradientUnits="userSpaceOnUse">
            <stop stop-color="#62E1FB" />
            <stop offset="1" stop-color="#00A2F3" />
        </linearGradient>
        <linearGradient id="paint3_linear_3_82187" x1="2.20421" y1="17.2976" x2="8.82321"
            y2="17.2976" gradientUnits="userSpaceOnUse">
            <stop stop-color="#00A2F3" stop-opacity="0" />
            <stop offset="1" stop-color="#0075CD" />
        </linearGradient>
        <linearGradient id="paint4_linear_3_82187" x1="6.37278" y1="17.2977" x2="12.9916"
            y2="17.2977" gradientUnits="userSpaceOnUse">
            <stop stop-color="#00A2F3" stop-opacity="0" />
            <stop offset="1" stop-color="#0075CD" />
        </linearGradient>
        <linearGradient id="paint5_linear_3_82187" x1="10.5414" y1="17.2977" x2="17.1603"
            y2="17.2977" gradientUnits="userSpaceOnUse">
            <stop stop-color="#00A2F3" stop-opacity="0" />
            <stop offset="1" stop-color="#0075CD" />
        </linearGradient>
    </defs>
    <path
        d="M16.0658 8.07423C20.5696 8.00544 24.2456 11.5502 24.3328 16.0537C24.3456 16.7149 24.2795 17.3585 24.1433 17.9758C23.9128 19.0211 23.7757 20.0848 23.7757 21.1552V23.2242C23.7757 23.5412 23.5187 23.7982 23.2018 23.7982H21.1327C20.0623 23.7982 18.9986 23.9352 17.9534 24.1658C17.3361 24.3019 16.6925 24.368 16.0313 24.3552C11.5279 24.2681 7.98307 20.5922 8.05176 16.0885C8.11878 11.6925 11.6698 8.1414 16.0658 8.07423Z"
        fill="url(#paint0_linear_3_82187)" />
    <path
        d="M16.0658 8.07423C20.5696 8.00544 24.2456 11.5502 24.3328 16.0537C24.3456 16.7149 24.2795 17.3585 24.1433 17.9758C23.9128 19.0211 23.7757 20.0848 23.7757 21.1552V23.2242C23.7757 23.5412 23.5187 23.7982 23.2018 23.7982H21.1327C20.0623 23.7982 18.9986 23.9352 17.9534 24.1658C17.3361 24.3019 16.6925 24.368 16.0313 24.3552C11.5279 24.2681 7.98307 20.5922 8.05176 16.0885C8.11878 11.6925 11.6698 8.1414 16.0658 8.07423Z"
        fill="url(#paint1_linear_3_82187)" />
    <path
        d="M10.4074 0.644755C4.9205 0.56093 0.442156 4.87943 0.335881 10.3659C0.32032 11.1714 0.400821 11.9555 0.566737 12.7076C0.8476 13.9809 1.01458 15.2768 1.01458 16.5809V19.1015C1.01458 19.4877 1.32762 19.8008 1.71384 19.8008H4.23448C5.53849 19.8008 6.83437 19.9677 8.10779 20.2486C8.85981 20.4145 9.64391 20.495 10.4494 20.4794C15.9358 20.3732 20.2543 15.895 20.1706 10.4082C20.0889 5.05267 15.7629 0.726509 10.4074 0.644755Z"
        fill="url(#paint2_linear_3_82187)" />
    <path
        d="M6.56643 10.0306C6.28624 9.73288 5.88966 9.5459 5.44847 9.5459C4.59996 9.5459 3.91211 10.2337 3.91211 11.0823C3.91211 11.5234 4.09903 11.92 4.3968 12.2002L7.71098 15.5144C7.99123 15.8121 8.3878 15.9991 8.82895 15.9991C9.67746 15.9991 10.3653 15.3112 10.3653 14.4627C10.3653 14.0216 10.1783 13.625 9.88062 13.3448L6.56643 10.0306Z"
        fill="url(#paint3_linear_3_82187)" />
    <circle cx="5.46996" cy="11.0823" r="1.53636" fill="white" />
    <path
        d="M10.752 10.0306C10.4718 9.73288 10.0752 9.5459 9.63402 9.5459C8.78551 9.5459 8.09766 10.2337 8.09766 11.0823C8.09766 11.5234 8.28458 11.92 8.58235 12.2002L11.8965 15.5144C12.1768 15.8121 12.5733 15.9991 13.0145 15.9991C13.863 15.9991 14.5509 15.3112 14.5509 14.4627C14.5509 14.0216 14.3639 13.625 14.0662 13.3448L10.752 10.0306Z"
        fill="url(#paint4_linear_3_82187)" />
    <circle cx="9.68089" cy="11.0823" r="1.53636" fill="white" />
    <path
        d="M14.9375 10.0306C14.6573 9.73288 14.2608 9.5459 13.8196 9.5459C12.971 9.5459 12.2832 10.2337 12.2832 11.0823C12.2832 11.5234 12.4702 11.92 12.7679 12.2002L16.0821 15.5144C16.3623 15.8121 16.7589 15.9991 17.2 15.9991C18.0486 15.9991 18.7364 15.3112 18.7364 14.4627C18.7364 14.0216 18.5494 13.625 18.2517 13.3448L14.9375 10.0306Z"
        fill="url(#paint5_linear_3_82187)" />
    <circle cx="13.8918" cy="11.0823" r="1.53636" fill="white" />
</svg>
