<svg width="25" height="26" viewBox="0 0 25 26" fill="none" xmlns="http://www.w3.org/2000/svg">
<path d="M20.3101 4.61739H16.8347C16.4168 4.61739 16.0781 4.27869 16.0781 3.86086V2.57231C16.0781 1.197 17.1971 0.078125 18.5724 0.078125C19.9477 0.078125 21.0666 1.19705 21.0666 2.57231V3.86081C21.0666 4.27869 20.7279 4.61739 20.3101 4.61739ZM17.5912 3.60866H19.5535V2.57231C19.5535 2.0313 19.1134 1.5912 18.5724 1.5912C18.0313 1.5912 17.5912 2.03135 17.5912 2.57231V3.60866H17.5912Z" fill="#29376D"/>
<path d="M22.5717 12.3439C22.5717 12.3439 22.5717 12.3439 22.5712 12.3439H14.7546C14.3369 12.3439 13.998 12.0049 13.998 11.5873V8.56115C13.998 8.55509 13.999 8.54903 13.999 8.54297C13.999 8.5369 13.9985 8.53034 13.999 8.52433L14.2513 3.85645C14.2709 3.45345 14.6033 3.13672 15.0068 3.13672H22.1369C22.5394 3.13672 22.8713 3.45143 22.8925 3.85291L23.3282 11.5469C23.3283 12.0509 22.979 12.3439 22.5717 12.3439Z" fill="#FF645A"/>
<path d="M22.5713 12.3439C22.5713 12.3439 22.5713 12.3439 22.5708 12.3439H15.6484V3.13672H22.1365C22.539 3.13672 22.8709 3.45142 22.8921 3.8529L23.3278 11.5469C23.3279 12.0509 22.9786 12.3439 22.5713 12.3439Z" fill="#FF3053"/>
<path d="M15.6487 6.03925V11.5872C15.6487 12.0049 15.3102 12.3438 14.8921 12.3438H7.05348C6.59535 12.3438 6.23967 11.938 6.30453 11.4808L6.65898 5.93285C6.71196 5.5601 7.03122 5.28271 7.40794 5.28271H14.8921C15.3102 5.28271 15.6487 5.62162 15.6487 6.03925Z" fill="#FABE2C"/>
<circle cx="19.5743" cy="23.6641" r="2.26961" fill="#29376D"/>
<circle cx="11.5157" cy="23.6641" r="2.26961" fill="#47568C"/>
<path d="M20.1366 11.0452C20.1472 11.252 20.0721 11.4543 19.9293 11.6045C19.7866 11.7543 19.5883 11.8396 19.3811 11.8396H11.9185C11.7112 11.8396 11.5135 11.7543 11.3703 11.6045C11.2275 11.4543 11.1529 11.252 11.163 11.0452L11.3143 8.019C11.3345 7.61652 11.6668 7.30029 12.0698 7.30029H19.2298C19.6328 7.30029 19.9652 7.61652 19.9853 8.019L20.1366 11.0452Z" fill="#4793FF"/>
<path d="M20.1352 11.0452C20.1458 11.252 20.0707 11.4543 19.9279 11.6045C19.7852 11.7543 19.587 11.8396 19.3797 11.8396H15.6484V7.30029H19.2284C19.6314 7.30029 19.9638 7.61652 19.9839 8.019L20.1352 11.0452Z" fill="#4756FF"/>
<path d="M24.2473 11.2739L22.9259 15.8459C22.5703 17.3318 21.256 18.3688 19.7272 18.3688H8.67207C8.30235 16.8627 7.27045 13.2833 6.52148 10.3267H23.515C23.749 10.3267 23.97 10.4351 24.1137 10.6207C24.2568 10.8058 24.3063 11.0469 24.2473 11.2739Z" fill="#DFE7F4"/>
<path d="M24.2467 11.2739L22.9253 15.8459C22.5698 17.3318 21.2554 18.3688 19.7267 18.3688H15.6484V10.3267H23.5145C23.7485 10.3267 23.9694 10.4351 24.1132 10.6207C24.2563 10.8058 24.3058 11.0469 24.2467 11.2739Z" fill="#B6C0D1"/>
<circle cx="11.5173" cy="23.6642" r="0.757496" fill="#F0F7FF"/>
<circle cx="19.5739" cy="23.6642" r="0.757496" fill="#DFE7F4"/>
<path d="M22.2551 20.6382C22.2551 21.0559 21.9157 21.3947 21.4981 21.3947H10.6573C9.29379 21.3947 8.12219 20.468 7.80809 19.1409C7.54751 18.2238 7.64447 18.5662 4.71851 6.87402C4.63367 6.54021 4.33421 6.3074 3.99031 6.3074H1.5436C1.12596 6.3074 0.787109 5.96855 0.787109 5.55092C0.787109 5.13278 1.12596 4.79443 1.5436 4.79443H3.99031C5.02757 4.79443 5.93 5.49638 6.18503 6.50133C6.18503 6.50133 6.54812 7.93147 7.02685 9.82218C7.77577 12.7789 8.80748 16.8629 9.17713 18.3688C9.22157 18.5485 9.25642 18.6925 9.28015 18.7925C9.43216 19.4338 9.99826 19.8817 10.6573 19.8817H21.4981C21.9157 19.8817 22.2551 20.2206 22.2551 20.6382Z" fill="#47568C"/>
<path d="M22.2538 20.6383C22.2538 21.056 21.9145 21.3948 21.4969 21.3948H15.6484V19.8818H21.4968C21.9145 19.8818 22.2538 20.2207 22.2538 20.6383Z" fill="#29376D"/>
</svg>
