<svg width="26" height="25" viewBox="0 0 26 25" fill="none" xmlns="http://www.w3.org/2000/svg">
<path d="M22.67 10.486L25.0844 8.06921L17.8368 0.416016L7.85547 10.486" fill="#F2C351"/>
<path d="M19.9434 7.90695L22.3601 5.49024L22.93 6.06016L20.5133 8.47688L19.9434 7.90695Z" fill="#F9D18B"/>
<path d="M16.377 8.18327L21.7658 2.79444L22.3357 3.36437L16.9469 8.7532L16.377 8.18327Z" fill="#F9D18B"/>
<path d="M11.8119 8.18746L10.6728 9.32657C10.5153 9.48407 10.5153 9.73864 10.6728 9.89613L12.3815 11.6048C12.539 11.7623 12.7935 11.7623 12.951 11.6048L14.0902 10.4657C14.2477 10.3082 14.2477 10.0536 14.0902 9.89613L13.5206 9.32657L12.951 9.89613L13.2358 10.1809L12.6663 10.7505L11.5271 9.61135L12.0967 9.04179L12.3815 9.32657L12.951 8.75702L12.3815 8.18746C12.2244 8.02996 11.9694 8.02996 11.8119 8.18746Z" fill="#C16B3F"/>
<path d="M17.7935 3.34509L18.363 2.77513L17.7931 2.20557L16.084 3.91464L16.6539 4.4842L17.2235 3.91505L18.9326 5.62372L19.5025 5.05376L17.7935 3.34509Z" fill="#C16B3F"/>
<path d="M15.2295 7.21457H14.649L14.757 6.89072C14.8053 6.74611 14.7674 6.5862 14.6599 6.47865L14.0903 5.90869L13.5204 6.47825L13.9143 6.87219L13.6291 7.72653L12.9508 7.04821L12.3809 7.61817L14.6595 9.89681L15.2295 9.32685L14.266 8.36335L14.3804 8.02057H15.0623L15.7986 8.75729L16.3686 8.18773L15.5142 7.33299C15.4389 7.25686 15.3362 7.21457 15.2295 7.21457Z" fill="#C16B3F"/>
<path d="M16.6527 6.76304L16.3679 6.47826L17.2222 5.62392L16.6523 5.05396L15.798 5.9083L15.5136 5.62352L16.3679 4.76918L15.798 4.19922L14.6588 5.33874C14.5017 5.49623 14.5017 5.75121 14.6588 5.9087L16.3675 7.61778C16.4461 7.69632 16.5492 7.73539 16.6523 7.73539C16.7558 7.73539 16.8589 7.69632 16.9375 7.61778L18.077 6.47826L17.507 5.9083L16.6527 6.76304Z" fill="#C16B3F"/>
<path d="M8.16738 20.9586H25.085V10.4858H8.16738C8.16738 10.8931 7.92731 11.2467 7.57285 11.4477C7.2063 11.6552 6.95898 12.0487 6.95898 12.4998C6.95898 13.0561 7.3348 13.5246 7.84595 13.6651C8.03003 13.7155 8.16738 13.8677 8.16738 14.0587V14.1634C8.16738 14.3543 8.03003 14.5062 7.84595 14.5569C7.33479 14.6975 6.95898 15.166 6.95898 15.7222C6.95898 16.2785 7.3348 16.747 7.84595 16.8875C8.03003 16.9379 8.16738 17.0901 8.16738 17.2811V17.3858C8.16738 17.5767 8.03003 17.7286 7.84595 17.7793C7.33479 17.9199 6.95898 18.3884 6.95898 18.9446C6.95898 19.3958 7.2063 19.7893 7.57285 19.9967C7.92731 20.1977 8.16738 20.5514 8.16738 20.9586V20.9586Z" fill="#F7D881"/>
<path d="M12.2063 20.959L8.58115 24.5842C8.29315 24.2962 8.21259 23.8765 8.32134 23.4837C8.43372 23.0777 8.33061 22.6246 8.01119 22.3055C7.61806 21.9124 7.02111 21.8468 6.5599 22.109C6.39395 22.2032 6.18932 22.1928 6.05439 22.0578L5.98027 21.9837C5.84533 21.8488 5.83486 21.6441 5.92912 21.4782C6.02096 21.3171 6.07251 21.139 6.08379 20.959" fill="#C66B60"/>
<path d="M0.916016 20.9586C0.916016 20.5514 1.15608 20.1977 1.51055 19.9967C1.8771 19.7893 2.12441 19.3958 2.12441 18.9446C2.12441 18.3884 1.7486 17.9199 1.23745 17.7793C1.05337 17.729 0.916016 17.5767 0.916016 17.3858V17.2811C0.916016 17.0901 1.05337 16.9383 1.23745 16.8875C1.7486 16.747 2.12441 16.2785 2.12441 15.7222C2.12441 15.166 1.7486 14.6975 1.23745 14.5569C1.05337 14.5066 0.916016 14.3543 0.916016 14.1634V14.0587C0.916016 13.8677 1.05337 13.7159 1.23745 13.6651C1.7486 13.5246 2.12441 13.0561 2.12441 12.4998C2.12441 12.0487 1.8771 11.6552 1.51055 11.4477C1.15608 11.2467 0.916016 10.8931 0.916016 10.4858H8.16641C8.16641 10.8931 7.92634 11.2467 7.57187 11.4477C7.20533 11.6552 6.95801 12.0487 6.95801 12.4998C6.95801 13.0561 7.33382 13.5246 7.84497 13.6651C8.02905 13.7155 8.16641 13.8677 8.16641 14.0587V14.1634C8.16641 14.3543 8.02905 14.5062 7.84497 14.5569C7.33382 14.6975 6.95801 15.166 6.95801 15.7222C6.95801 16.2785 7.33382 16.747 7.84497 16.8875C8.02905 16.9379 8.16641 17.0901 8.16641 17.2811V17.3858C8.16641 17.5767 8.02905 17.7286 7.84497 17.7793C7.33382 17.9199 6.95801 18.3884 6.95801 18.9446C6.95801 19.3958 7.20533 19.7893 7.57187 19.9967C7.92634 20.1977 8.16641 20.5514 8.16641 20.9586H0.916016Z" fill="#E47C6E"/>
<path d="M3.33203 12.0972H5.74842V12.9028H3.33203V12.0972Z" fill="#C66B60"/>
<path d="M3.33203 13.7085H5.74842V14.5141H3.33203V13.7085Z" fill="#C66B60"/>
<path d="M3.33203 15.3198H5.74842V16.1254H3.33203V15.3198Z" fill="#C66B60"/>
<path d="M3.33203 16.9307H5.74842V17.7363H3.33203V16.9307Z" fill="#C66B60"/>
<path d="M3.33203 18.542H5.74842V19.3476H3.33203V18.542Z" fill="#C66B60"/>
<path d="M9.375 12.4995H10.1806V14.9163H10.9858V12.4995H11.7914V11.6943H9.375V12.4995Z" fill="#C16B3F"/>
<path d="M23.8754 11.6943H21.459V12.4995H22.2646V14.9163H23.0698V12.4995H23.8754V11.6943Z" fill="#C16B3F"/>
<path d="M12.1953 11.6943H13.0005V14.9167H12.1953V11.6943Z" fill="#C16B3F"/>
<path d="M15.4159 11.6943H13.8051C13.5824 11.6943 13.4023 11.8744 13.4023 12.0971V14.5139C13.4023 14.7367 13.5824 14.9167 13.8051 14.9167H15.4159C15.6387 14.9167 15.8187 14.7367 15.8187 14.5139V13.7083H15.0131V14.1111H14.2079V12.4999H15.0131V12.9027H15.8187V12.0971C15.8187 11.8744 15.6387 11.6943 15.4159 11.6943Z" fill="#C16B3F"/>
<path d="M17.8335 12.2506L17.0279 12.6534V11.6943H16.2227V14.9167H17.0279V13.5545L17.3513 13.3929L17.8339 13.8755V14.9167H18.6391V13.7083C18.6391 13.6012 18.5972 13.4989 18.5214 13.4232L18.111 13.0127L18.4163 12.86C18.5529 12.792 18.6391 12.6522 18.6391 12.4999V11.6943H17.8335V12.2506Z" fill="#C16B3F"/>
<path d="M19.043 12.0971V14.5139C19.043 14.7367 19.223 14.9167 19.4458 14.9167H21.0566V14.1111H19.8486V13.7083H21.0566V12.9027H19.8486V12.4999H21.0566V11.6943H19.4458C19.223 11.6943 19.043 11.8744 19.043 12.0971Z" fill="#C16B3F"/>
<path d="M9.375 15.7222H23.8754V16.5278H9.375V15.7222Z" fill="#F2C351"/>
<path d="M18.2363 17.3335H23.8751V18.1391H18.2363V17.3335Z" fill="#F2C351"/>
<path d="M9.77734 17.7363H16.2221V19.3475H9.77734V17.7363Z" fill="#C16B3F"/>
<path d="M9.77734 17.7363V19.3475H14.0905C14.6037 18.9185 15.0089 18.3663 15.2639 17.7363H9.77734Z" fill="#E39854"/>
</svg>
