<svg width="24" height="25" viewBox="0 0 24 25" fill="none" xmlns="http://www.w3.org/2000/svg">
<path d="M11.9942 6.05811C10.7387 6.05811 9.7207 7.07608 9.7207 8.33163C9.7207 9.58717 10.7387 10.6051 11.9942 10.6051C13.25 10.6051 14.2678 9.58717 14.2678 8.33163C14.2666 7.07645 13.2494 6.0594 11.9942 6.05811ZM11.9942 9.84732C11.1572 9.84732 10.4785 9.16867 10.4785 8.33163C10.4785 7.4946 11.1572 6.81595 11.9942 6.81595C12.8315 6.81595 13.5099 7.4946 13.5099 8.33163C13.5099 9.16867 12.8315 9.84732 11.9942 9.84732Z" fill="#004FAC"/>
<path d="M13.1305 4.71728V1.13234C13.1305 0.923081 12.961 0.753418 12.7516 0.753418H11.2359C11.0266 0.753418 10.857 0.923081 10.857 1.13234V4.71728C9.27876 5.21388 8.20508 6.6772 8.20508 8.33183C8.20508 9.98647 9.27876 11.4498 10.857 11.9464V23.8676C10.857 24.0769 11.0266 24.2465 11.2359 24.2465H12.7516C12.961 24.2465 13.1305 24.0769 13.1305 23.8676V11.9464C14.7089 11.4498 15.7826 9.98647 15.7826 8.33183C15.7826 6.6772 14.7089 5.21388 13.1305 4.71728V4.71728ZM11.6148 1.51126H12.3727V4.56187C12.1208 4.53615 11.8668 4.53615 11.6148 4.56187V1.51126ZM12.3727 23.4887H11.6148V12.1018C11.8668 12.1275 12.1208 12.1275 12.3727 12.1018V23.4887ZM11.9937 11.3632C10.3197 11.3632 8.96236 10.0061 8.96236 8.33183C8.96236 6.65759 10.3197 5.30047 11.9937 5.30047C13.668 5.30047 15.0251 6.65759 15.0251 8.33183C15.0233 10.0052 13.6672 11.3613 11.9937 11.3632Z" fill="#004FAC"/>
<path d="M19.9513 12.8789C18.6957 12.8789 17.6777 13.8969 17.6777 15.1524C17.6777 16.408 18.6957 17.426 19.9513 17.426C21.207 17.426 22.2248 16.408 22.2248 15.1524C22.2237 13.8973 21.2065 12.8802 19.9513 12.8789ZM19.9513 16.6681C19.1142 16.6681 18.4356 15.9895 18.4356 15.1524C18.4356 14.3154 19.1142 13.6367 19.9513 13.6367C20.7885 13.6367 21.4669 14.3154 21.4669 15.1524C21.4669 15.9895 20.7885 16.6681 19.9513 16.6681Z" fill="#004FAC"/>
<path d="M23.74 15.1524C23.7379 13.4984 22.6648 12.0361 21.0875 11.5379V1.13234C21.0875 0.923081 20.918 0.753418 20.7086 0.753418H19.1929C18.9837 0.753418 18.814 0.923081 18.814 1.13234V11.5379C17.2358 12.0345 16.1621 13.4978 16.1621 15.1524C16.1621 16.8071 17.2358 18.2704 18.814 18.767V23.8676C18.814 24.0769 18.9837 24.2466 19.1929 24.2466H20.7086C20.918 24.2466 21.0875 24.0769 21.0875 23.8676V18.767C22.6648 18.2687 23.7379 16.8065 23.74 15.1524ZM19.5718 1.51128H20.3297V11.3825C20.0779 11.3567 19.8239 11.3567 19.5718 11.3825V1.51128ZM20.3297 23.4887H19.5718V18.9224C19.8239 18.9481 20.0779 18.9481 20.3297 18.9224V23.4887ZM19.9508 18.1838C18.2767 18.1838 16.9194 16.8267 16.9194 15.1524C16.9194 13.4782 18.2767 12.1211 19.9508 12.1211C21.625 12.1211 22.9821 13.4782 22.9821 15.1524C22.9803 16.8257 21.6243 18.1819 19.9508 18.1838Z" fill="#004FAC"/>
<path d="M4.0372 15.9102C2.78165 15.9102 1.76367 16.9281 1.76367 18.1837C1.76367 19.4392 2.78165 20.4572 4.0372 20.4572C5.29293 20.4572 6.31072 19.4392 6.31072 18.1837C6.30961 16.9285 5.29237 15.9114 4.0372 15.9102ZM4.0372 19.6994C3.20017 19.6994 2.52151 19.0207 2.52151 18.1837C2.52151 17.3466 3.20017 16.668 4.0372 16.668C4.87441 16.668 5.55288 17.3466 5.55288 18.1837C5.55288 19.0207 4.87441 19.6994 4.0372 19.6994Z" fill="#004FAC"/>
<path d="M5.17346 14.5692V1.13234C5.17346 0.923081 5.00398 0.753418 4.79454 0.753418H3.27886C3.0696 0.753418 2.89994 0.923081 2.89994 1.13234V14.5692C1.32172 15.0658 0.248047 16.5292 0.248047 18.1838C0.248047 19.8384 1.32172 21.3018 2.89994 21.7983V23.8676C2.89994 24.0769 3.0696 24.2465 3.27886 24.2465H4.79454C5.00398 24.2465 5.17346 24.0769 5.17346 23.8676V21.7983C6.75187 21.3018 7.82554 19.8384 7.82554 18.1838C7.82554 16.5292 6.75187 15.0658 5.17346 14.5692ZM3.65778 1.51126H4.41562V14.4138C4.16381 14.3881 3.90978 14.3881 3.65778 14.4138V1.51126ZM4.41562 23.4887H3.65778V21.9537C3.90978 21.9795 4.16381 21.9795 4.41562 21.9537V23.4887ZM4.0367 21.2151C2.36264 21.2151 1.00533 19.858 1.00533 18.1838C1.00533 16.5095 2.36264 15.1524 4.0367 15.1524C5.71095 15.1524 7.06807 16.5095 7.06807 18.1838C7.06622 19.8571 5.7102 21.2133 4.0367 21.2151Z" fill="#004FAC"/>
</svg>
