<svg width="18" height="18" viewBox="0 0 18 18" fill="none" xmlns="http://www.w3.org/2000/svg">
<path d="M0 3C0 1.34315 1.34315 0 3 0H15C16.6569 0 18 1.34315 18 3V15C18 16.6569 16.6569 18 15 18H3C1.34315 18 0 16.6569 0 15V3Z" fill="#A7E9E9"/>
<path d="M7.92956 12C7.79097 11.9995 7.65879 11.9416 7.56456 11.84L5.13456 9.25497C4.9454 9.05339 4.95547 8.73663 5.15706 8.54747C5.35864 8.35831 5.6754 8.36839 5.86456 8.56997L7.92456 10.765L12.1296 6.16497C12.2458 6.02018 12.4328 5.95175 12.615 5.98727C12.7973 6.02279 12.9449 6.15641 12.9983 6.33427C13.0517 6.51212 13.0021 6.70493 12.8696 6.83497L8.29956 11.835C8.2062 11.9384 8.0739 11.9982 7.93456 12L7.92956 12Z" fill="#59D6D6"/>
</svg>
