<svg width="40" height="40" viewBox="0 0 40 40" fill="none" xmlns="http://www.w3.org/2000/svg">
<circle cx="20" cy="20" r="20" fill="black" fill-opacity="0.2"/>
<path d="M22.9915 20.9889C22.9915 22.6429 21.6507 23.9837 19.9967 23.9837C18.3428 23.9837 17.002 22.6429 17.002 20.9889C17.002 19.335 18.3428 17.9941 19.9967 17.9941C21.6507 17.9941 22.9915 19.335 22.9915 20.9889Z" fill="white"/>
<path d="M28.4115 15H25.5729C25.3333 15 25.1094 14.8958 24.9479 14.7188C23.4688 13.0625 22.9115 12.5 22.3073 12.5H17.8542C17.2448 12.5 16.6458 13.0625 15.1615 14.724C15.0052 14.901 14.776 15 14.5417 15H14.3281V14.5833C14.3281 14.3542 14.1406 14.1667 13.9115 14.1667H12.5573C12.3281 14.1667 12.1406 14.3542 12.1406 14.5833V15H11.75C10.8281 15 10 15.6875 10 16.599V25.7656C10 26.6771 10.8281 27.5 11.7448 27.5H28.4115C29.3281 27.5 30 26.6771 30 25.7656V16.599C30 15.6875 29.3281 15 28.4115 15ZM20.2083 25.4375C17.5885 25.5573 15.4323 23.401 15.5521 20.7812C15.6563 18.4948 17.5052 16.6458 19.7917 16.5417C22.4115 16.4219 24.5677 18.5781 24.4479 21.1979C24.3438 23.4844 22.4948 25.3333 20.2083 25.4375ZM25 18.0208C24.625 18.0208 24.3229 17.7187 24.3229 17.3438C24.3229 16.9688 24.625 16.6667 25 16.6667C25.375 16.6667 25.6771 16.9688 25.6771 17.3438C25.6771 17.7187 25.375 18.0208 25 18.0208Z" fill="white"/>
</svg>
